<svg width="40" height="40" viewBox="0 0 40 40" fill="none" xmlns="http://www.w3.org/2000/svg">
<circle cx="20" cy="20" r="20" fill="#E5332A"/>
<path d="M34.6849 33.2181L27.512 26.0343C28.9261 24.337 29.7766 22.168 29.7766 19.799C29.7766 14.3944 25.3448 10 19.8934 10C14.4421 10 10 14.3995 10 19.8041C10 25.2087 14.4318 29.6031 19.8832 29.6031C22.199 29.6031 24.3304 28.8083 26.0211 27.4803L33.2196 34.6846C33.6397 35.1051 34.2648 35.1051 34.6849 34.6846C35.105 34.2642 35.105 33.6386 34.6849 33.2181ZM12.1006 19.8041C12.1006 15.5584 15.5948 12.1075 19.8832 12.1075C24.1715 12.1075 27.6657 15.5584 27.6657 19.8041C27.6657 24.0498 24.1715 27.5008 19.8832 27.5008C15.5948 27.5008 12.1006 24.0447 12.1006 19.8041Z" fill="white"/>
</svg>
