<svg width="54" height="40" viewBox="0 0 54 40" fill="none" xmlns="http://www.w3.org/2000/svg">
<g filter="url(#filter0_d_278_2802)">
<ellipse cx="27.1361" cy="20" rx="19.4547" ry="13" fill="white"/>
<path d="M46.0908 20C46.0908 23.3712 44.0459 26.484 40.6148 28.7767C37.1872 31.0671 32.4232 32.5 27.1361 32.5C21.849 32.5 17.085 31.0671 13.6573 28.7767C10.2263 26.484 8.1814 23.3712 8.1814 20C8.1814 16.6288 10.2263 13.516 13.6573 11.2233C17.085 8.9329 21.849 7.5 27.1361 7.5C32.4232 7.5 37.1872 8.9329 40.6148 11.2233C44.0459 13.516 46.0908 16.6288 46.0908 20Z" stroke="#002C42"/>
</g>
<path d="M27.5331 16.2588C25.5615 16.2588 23.9597 17.848 23.9597 19.8042C23.9597 21.7604 25.5615 23.348 27.5331 23.348C29.5048 23.348 31.1064 21.7605 31.1064 19.8042C31.1064 17.848 29.5048 16.2588 27.5331 16.2588Z" fill="#002C42"/>
<path d="M41.4568 18.7241C38.3256 14.6835 34.4741 10.9442 27.5419 10.9407H27.541H27.5401C27.5401 10.939 27.5349 10.939 27.5331 10.9407C27.5331 10.9407 27.5288 10.9407 27.527 10.9407C27.5261 10.9407 27.5261 10.9407 27.5261 10.9407H27.5253C27.5244 10.9407 27.5244 10.9407 27.5244 10.9407C20.5923 10.9442 16.7407 14.6836 13.6096 18.7241C13.1168 19.3612 13.1168 20.2475 13.6096 20.8846C16.7407 24.9252 20.5923 28.6645 27.5245 28.668C27.5245 28.668 27.5245 28.668 27.5254 28.668H27.5263C27.5263 28.668 27.5263 28.668 27.5272 28.668H27.5281C27.529 28.668 27.5333 28.668 27.5333 28.668C27.5342 28.668 27.5351 28.668 27.5369 28.668H27.5385H27.5394H27.5403H27.5412H27.5421C27.5482 28.668 27.5543 28.668 27.5613 28.668C27.5692 28.6663 27.577 28.6663 27.5849 28.668C34.4892 28.6494 38.3319 24.9165 41.4571 20.8846C41.9496 20.2475 41.9496 19.3612 41.4568 18.7241ZM27.5384 25.1225H27.5374H27.5368H27.5357H27.534H27.5332C27.5315 25.1225 27.5296 25.1225 27.5296 25.1225H27.5288C27.5288 25.1225 27.5288 25.1225 27.5279 25.1225C24.5755 25.119 22.1731 22.7335 22.1731 19.8044C22.1731 16.8752 24.5755 14.4896 27.5279 14.4862C27.5295 14.4862 27.5322 14.4862 27.5357 14.4862H27.5384C30.4906 14.4897 32.8931 16.8752 32.8931 19.8044C32.8931 22.7335 30.4907 25.1191 27.5384 25.1225Z" fill="#002C42"/>
<defs>
<filter id="filter0_d_278_2802" x="0.681396" y="0" width="52.9094" height="40" filterUnits="userSpaceOnUse" color-interpolation-filters="sRGB">
<feFlood flood-opacity="0" result="BackgroundImageFix"/>
<feColorMatrix in="SourceAlpha" type="matrix" values="0 0 0 0 0 0 0 0 0 0 0 0 0 0 0 0 0 0 127 0" result="hardAlpha"/>
<feOffset/>
<feGaussianBlur stdDeviation="3.5"/>
<feComposite in2="hardAlpha" operator="out"/>
<feColorMatrix type="matrix" values="0 0 0 0 0 0 0 0 0 0 0 0 0 0 0 0 0 0 0.25 0"/>
<feBlend mode="normal" in2="BackgroundImageFix" result="effect1_dropShadow_278_2802"/>
<feBlend mode="normal" in="SourceGraphic" in2="effect1_dropShadow_278_2802" result="shape"/>
</filter>
</defs>
</svg>
